<svg width="44" height="44" viewBox="0 0 44 44" fill="none" xmlns="http://www.w3.org/2000/svg">
<path d="M5.50033 14.6667H38.5003C38.9866 14.6667 39.4529 14.4735 39.7967 14.1297C40.1405 13.7859 40.3337 13.3196 40.3337 12.8333C40.3337 12.3471 40.1405 11.8808 39.7967 11.537C39.4529 11.1932 38.9866 11 38.5003 11H5.50033C5.0141 11 4.54778 11.1932 4.20396 11.537C3.86015 11.8808 3.66699 12.3471 3.66699 12.8333C3.66699 13.3196 3.86015 13.7859 4.20396 14.1297C4.54778 14.4735 5.0141 14.6667 5.50033 14.6667ZM38.5003 29.3333H5.50033C5.0141 29.3333 4.54778 29.5265 4.20396 29.8703C3.86015 30.2141 3.66699 30.6804 3.66699 31.1667C3.66699 31.6529 3.86015 32.1192 4.20396 32.463C4.54778 32.8068 5.0141 33 5.50033 33H38.5003C38.9866 33 39.4529 32.8068 39.7967 32.463C40.1405 32.1192 40.3337 31.6529 40.3337 31.1667C40.3337 30.6804 40.1405 30.2141 39.7967 29.8703C39.4529 29.5265 38.9866 29.3333 38.5003 29.3333ZM38.5003 20.1667H5.50033C5.0141 20.1667 4.54778 20.3598 4.20396 20.7036C3.86015 21.0475 3.66699 21.5138 3.66699 22C3.66699 22.4862 3.86015 22.9525 4.20396 23.2964C4.54778 23.6402 5.0141 23.8333 5.50033 23.8333H38.5003C38.9866 23.8333 39.4529 23.6402 39.7967 23.2964C40.1405 22.9525 40.3337 22.4862 40.3337 22C40.3337 21.5138 40.1405 21.0475 39.7967 20.7036C39.4529 20.3598 38.9866 20.1667 38.5003 20.1667Z" fill="black"/>
</svg>
